<!--?xml version="1.0" standalone="no"?-->
              <svg id="sw-js-blob-svg" viewBox="0 0 100 100" xmlns="http://www.w3.org/2000/svg" version="1.1">
                    <defs> 
                        <linearGradient id="sw-gradient" x1="0" x2="1" y1="1" y2="0">
                            <stop id="stop1" stop-color="rgba(255, 255, 255, 1)" offset="0%"></stop>
                            <stop id="stop2" stop-color="rgba(141.958, 139.07, 134.303, 1)" offset="100%"></stop>
                        </linearGradient>
                    </defs>
                <path fill="url(#sw-gradient)" d="M18.1,-31.8C24.4,-27.7,30.9,-24.7,36.3,-19.6C41.6,-14.4,45.6,-7.2,43.6,-1.2C41.6,4.9,33.6,9.8,29.3,16.8C25.1,23.8,24.7,32.9,20.4,38.7C16.2,44.4,8.1,46.7,0.9,45.2C-6.3,43.6,-12.6,38.1,-19,33.6C-25.4,29.2,-32,25.7,-36.3,20.3C-40.6,14.8,-42.6,7.4,-42.8,-0.1C-43,-7.6,-41.3,-15.2,-37.7,-21.9C-34.1,-28.6,-28.6,-34.4,-22,-38.3C-15.4,-42.2,-7.7,-44.2,-0.9,-42.7C5.9,-41.1,11.8,-35.9,18.1,-31.8Z" width="100%" height="100%" transform="translate(50 50)" style="transition: all 0.3s ease 0s;" stroke-width="0" stroke="url(#sw-gradient)"></path>
              </svg>