<!--?xml version="1.0" standalone="no"?-->
              <svg id="sw-js-blob-svg" viewBox="0 0 100 100" xmlns="http://www.w3.org/2000/svg" version="1.1">
                    <defs> 
                        <linearGradient id="sw-gradient" x1="0" x2="1" y1="1" y2="0">
                            <stop id="stop1" stop-color="rgba(0, 50.814, 176.109, 1)" offset="0%"></stop>
                            <stop id="stop2" stop-color="rgba(133.631, 1.302, 148.788, 1)" offset="100%"></stop>
                        </linearGradient>
                    </defs>
                <path fill="url(#sw-gradient)" d="M16.4,-29.3C19.1,-23.7,17.7,-15.6,16.7,-9.9C15.7,-4.2,15.2,-1.1,17.8,4.8C20.4,10.6,26.1,19,24.6,22C23.1,24.9,14.5,22.4,7.8,22.3C1.2,22.3,-3.4,24.8,-6.7,23.5C-10,22.2,-12,17.2,-18.3,13.7C-24.6,10.3,-35.2,8.4,-38.4,3.9C-41.7,-0.7,-37.4,-7.9,-32.4,-13C-27.3,-18.2,-21.4,-21.2,-15.9,-25.5C-10.4,-29.8,-5.2,-35.3,0.8,-36.6C6.8,-37.9,13.7,-34.9,16.4,-29.3Z" width="100%" height="100%" transform="translate(50 50)" style="transition: all 0.3s ease 0s;" stroke-width="0"></path>
              </svg>