<?xml version="1.0" encoding="utf-8"?>
<!-- Generator: Adobe Illustrator 24.0.0, SVG Export Plug-In . SVG Version: 6.00 Build 0)  -->
<svg version="1.1" id="Layer_1" xmlns="http://www.w3.org/2000/svg" xmlns:xlink="http://www.w3.org/1999/xlink" x="0px" y="0px"
	 viewBox="0 0 1090.1 606.6" style="enable-background:new 0 0 1090.1 606.6;" xml:space="preserve">
<style type="text/css">
	.st0{opacity:0.31;fill:#224290;}
	.st1{fill:#0E2C5B;}
	.st2{fill:#224290;}
</style>
<image style="display:none;overflow:visible;" width="370" height="201" xlink:href="C:\Users\Omen\Desktop\pro-table-bottom.png"  transform="matrix(2.973 0 0 2.973 -29.625 15.6537)">
</image>
<path class="st0" d="M1089.7,510.5c0,0,0,42.6-46.4,73.3H16.6V46.5c0,0,114.9,369,228.7,354c48.3-7.9,81.4,3.4,100,13.5
	c17.2,9.4,36.2,15.2,55.7,17.6c35.4,4.4,86.6,9.8,113.4,7.9c43.3-3,101.8,26,112.9,65S917.4,554.5,1089.7,510.5z"/>
<path class="st1" d="M1073.5,540.6c0,0,0,42.6-46.4,73.3H0.4V76.6c0,0,114.9,369,228.7,354c48.3-7.9,81.4,3.4,100,13.5
	c17.2,9.4,36.2,15.2,55.7,17.6c35.4,4.4,86.6,9.8,113.4,7.9c43.3-3,101.8,26,112.9,65S901.2,584.6,1073.5,540.6z"/>
<path class="st2" d="M0.4,613.9V16.3c0,0,60.5,77.3,80.6,224.3s71.5,195,110.8,194s56.4,2,89.7,39s152.2,59,152.2,59
	s58.4,10.6,87.7,81.3H0.4z"/>
</svg>
